<?xml version="1.0" encoding="UTF-8"?>
<!-- Created with Inkscape (http://www.inkscape.org/) -->
<svg width="145.23mm" height="95.731mm" version="1.1" viewBox=".2 0 145.23 95.731" xmlns="http://www.w3.org/2000/svg" xmlns:cc="http://creativecommons.org/ns#" xmlns:dc="http://purl.org/dc/elements/1.1/" xmlns:rdf="http://www.w3.org/1999/02/22-rdf-syntax-ns#" xmlns:xlink="http://www.w3.org/1999/xlink">
 <defs>
  <symbol id="arrow-right-alt" viewBox="0 0 20 20">
   <title>arrow-right-alt</title>
   <path d="m0.52917 2.9104v-0.52917h3.175l-1.0583-1.0583 0.26458-0.52917 1.8521 1.8521-1.8521 1.8521-0.26458-0.52917 1.0583-1.0583z" stroke-width=".26458"/>
  </symbol>
  <symbol id="filter" viewBox="0 0 20 20">
   <title>filter</title>
   <path d="m0.79375 1.1906v-0.52917s0.88371-0.26458 1.8521-0.26458 1.8521 0.26458 1.8521 0.26458v0.52917l-1.3229 1.86v1.8441s-0.32279-0.023813-0.59531-0.1561c-0.27252-0.13229-0.46302-0.37306-0.46302-0.37306v-1.315z" stroke-width=".26458"/>
  </symbol>
 </defs>
 <metadata>
  <rdf:RDF>
   <cc:Work rdf:about="">
    <dc:format>image/svg+xml</dc:format>
    <dc:type rdf:resource="http://purl.org/dc/dcmitype/StillImage"/>
    <dc:title/>
   </cc:Work>
  </rdf:RDF>
 </metadata>
 <g transform="translate(-1.3455 -81.156)">
  <g fill="none" stroke="#000" stroke-linecap="round" stroke-width="1.365">
   <path d="m18.709 81.848v94.346"/>
   <path d="m18.709 162.43h15.769"/>
   <path d="m18.709 126.72h15.769"/>
   <path d="m18.641 91.003h15.769"/>
   <path d="m2.3059 168.08h15.769"/>
   <path d="m2.3059 132.36h15.769"/>
   <path d="m2.2377 96.649h15.769"/>
  </g>
  <g>
   <g transform="matrix(2.4577 0 0 1.2411 -96.664 1.3094)" fill="#21a42d">
    <use transform="matrix(.39872 0 0 .39872 43.059 69.062)" width="100%" height="100%" xlink:href="#arrow-right-alt"/>
    <use transform="matrix(.39872 0 0 .39872 43.059 90.087)" width="100%" height="100%" xlink:href="#arrow-right-alt"/>
    <use transform="matrix(.39872 0 0 .39872 43.059 111.11)" width="100%" height="100%" xlink:href="#arrow-right-alt"/>
    <use transform="matrix(.39872 0 0 .39872 43.059 132.14)" width="100%" height="100%" xlink:href="#arrow-right-alt"/>
   </g>
   <use transform="matrix(1.0844 0 0 .5476 95.3 121.86)" width="100%" height="100%" fill="#21a42d" xlink:href="#arrow-right-alt"/>
   <rect x="58.307" y="86.65" width="32.465" height="85.859" fill="#66e18d" stroke="#000" stroke-linecap="round" stroke-width="1.1662"/>
   <text x="73.011368" y="97.112617" fill="#000000" font-family="sans-serif" font-size="14.593px" font-weight="bold" letter-spacing="0px" stroke-width=".36482" word-spacing="0px" writing-mode="tb-rl" style="font-feature-settings:normal;font-variant-caps:normal;font-variant-ligatures:normal;font-variant-numeric:normal;line-height:1.25" xml:space="preserve"><tspan x="97.112617" y="73.011368" font-family="sans-serif" font-size="14.593px" font-weight="bold" stroke-width=".36482" writing-mode="tb-rl" style="font-feature-settings:normal;font-variant-caps:normal;font-variant-ligatures:normal;font-variant-numeric:normal">KERNEL</tspan></text>
   <rect x="90.772" y="86.65" width="32.465" height="85.859" fill="#66e18d" stroke="#000" stroke-linecap="round" stroke-width="1.1662"/>
   <text x="105.48312" y="107.27332" fill="#000000" font-family="sans-serif" font-size="14.593px" font-weight="bold" letter-spacing="0px" stroke-width=".36482" word-spacing="0px" writing-mode="tb-rl" style="font-feature-settings:normal;font-variant-caps:normal;font-variant-ligatures:normal;font-variant-numeric:normal;line-height:1.25" xml:space="preserve"><tspan x="107.27332" y="105.48312">USER</tspan></text>
  </g>
  <g>
   <use transform="matrix(.60856 0 0 .60856 93.739 156.85)" width="100%" height="100%" fill="#eb0f0f" xlink:href="#filter"/>
   <text x="114.62725" y="164.0352" fill="#000000" font-family="sans-serif" font-size="7.0184px" letter-spacing="0px" stroke-width=".17546" word-spacing="0px" style="line-height:1.25" xml:space="preserve"><tspan x="114.62725" y="164.0352" stroke-width=".17546">?</tspan></text>
  </g>
  <g transform="translate(-32.253 .16802)">
   <use transform="matrix(.60856 0 0 .60856 93.739 156.85)" width="100%" height="100%" fill="#eb0f0f" xlink:href="#filter"/>
   <text x="114.62725" y="164.0352" fill="#000000" font-family="sans-serif" font-size="7.0184px" letter-spacing="0px" stroke-width=".17546" word-spacing="0px" style="line-height:1.25" xml:space="preserve"><tspan x="114.62725" y="164.0352" stroke-width=".17546">?</tspan></text>
  </g>
 </g>
</svg>
