<?xml version="1.0" encoding="UTF-8" standalone="no"?>
<!-- Created with Inkscape (http://www.inkscape.org/) -->

<svg
   xmlns:dc="http://purl.org/dc/elements/1.1/"
   xmlns:cc="http://creativecommons.org/ns#"
   xmlns:rdf="http://www.w3.org/1999/02/22-rdf-syntax-ns#"
   xmlns:svg="http://www.w3.org/2000/svg"
   xmlns="http://www.w3.org/2000/svg"
   xmlns:sodipodi="http://sodipodi.sourceforge.net/DTD/sodipodi-0.dtd"
   xmlns:inkscape="http://www.inkscape.org/namespaces/inkscape"
   width="259.18372mm"
   height="161.12508mm"
   viewBox="0 0 259.18371 161.12507"
   version="1.1"
   id="svg83650"
   inkscape:version="0.92.3 (2405546, 2018-03-11)"
   sodipodi:docname="filter_v2.svg">
  <defs
     id="defs83644">
    <marker
       inkscape:isstock="true"
       style="overflow:visible"
       id="marker182157"
       refX="0"
       refY="0"
       orient="auto"
       inkscape:stockid="Arrow1Lend">
      <path
         inkscape:connector-curvature="0"
         transform="matrix(-0.8,0,0,-0.8,-10,0)"
         style="fill:#000000;fill-opacity:1;fill-rule:evenodd;stroke:#000000;stroke-width:1.00000003pt;stroke-opacity:1"
         d="M 0,0 5,-5 -12.5,0 5,5 Z"
         id="path182155" />
    </marker>
    <marker
       inkscape:stockid="Arrow1Lend"
       orient="auto"
       refY="0"
       refX="0"
       id="Arrow1Lend"
       style="overflow:visible"
       inkscape:isstock="true"
       inkscape:collect="always">
      <path
         id="path167348"
         d="M 0,0 5,-5 -12.5,0 5,5 Z"
         style="fill:#000000;fill-opacity:1;fill-rule:evenodd;stroke:#000000;stroke-width:1.00000003pt;stroke-opacity:1"
         transform="matrix(-0.8,0,0,-0.8,-10,0)"
         inkscape:connector-curvature="0" />
    </marker>
    <marker
       inkscape:stockid="Arrow1Lend"
       orient="auto"
       refY="0"
       refX="0"
       id="Arrow1Lend-8"
       style="overflow:visible"
       inkscape:isstock="true"
       inkscape:collect="always">
      <path
         id="path167348-3"
         d="M 0,0 5,-5 -12.5,0 5,5 Z"
         style="fill:#000000;fill-opacity:1;fill-rule:evenodd;stroke:#000000;stroke-width:1.00000003pt;stroke-opacity:1"
         transform="matrix(-0.8,0,0,-0.8,-10,0)"
         inkscape:connector-curvature="0" />
    </marker>
  </defs>
  <sodipodi:namedview
     id="base"
     pagecolor="#ffffff"
     bordercolor="#666666"
     borderopacity="1.0"
     inkscape:pageopacity="0.0"
     inkscape:pageshadow="2"
     inkscape:zoom="0.64"
     inkscape:cx="368.81387"
     inkscape:cy="30.591212"
     inkscape:document-units="mm"
     inkscape:current-layer="layer1"
     showgrid="false"
     inkscape:window-width="1916"
     inkscape:window-height="1041"
     inkscape:window-x="0"
     inkscape:window-y="18"
     inkscape:window-maximized="0"
     fit-margin-top="0"
     fit-margin-left="0"
     fit-margin-right="0"
     fit-margin-bottom="0" />
  <metadata
     id="metadata83647">
    <rdf:RDF>
      <cc:Work
         rdf:about="">
        <dc:format>image/svg+xml</dc:format>
        <dc:type
           rdf:resource="http://purl.org/dc/dcmitype/StillImage" />
        <dc:title></dc:title>
      </cc:Work>
    </rdf:RDF>
  </metadata>
  <g
     inkscape:label="Layer 1"
     inkscape:groupmode="layer"
     id="layer1"
     transform="translate(-21.067964,-91.11213)">
    <path
       style="fill:none;stroke:#000000;stroke-width:1.06500006;stroke-linecap:butt;stroke-linejoin:miter;stroke-miterlimit:4;stroke-dasharray:6.39000028, 2.1300001;stroke-dashoffset:0;stroke-opacity:1"
       d="M 21.067964,140.08264 H 262.97272"
       id="path166986"
       inkscape:connector-curvature="0" />
    <g
       aria-label="user"
       style="font-style:normal;font-weight:normal;font-size:10.58333302px;line-height:1.25;font-family:sans-serif;letter-spacing:0px;word-spacing:0px;fill:#000000;fill-opacity:1;stroke:none;stroke-width:0.26458332"
       id="text166990">
      <path
         d="m 238.23875,125.94822 v -3.50367 h 0.95085 v 3.46749 q 0,0.82166 0.32039,1.23507 0.3204,0.40824 0.96119,0.40824 0.76997,0 1.21439,-0.49092 0.44959,-0.49093 0.44959,-1.33842 v -3.28146 h 0.95084 v 5.78777 h -0.95084 v -0.88884 q -0.34623,0.5271 -0.80616,0.78548 -0.45475,0.25322 -1.05936,0.25322 -0.99736,0 -1.51412,-0.62012 -0.51677,-0.62012 -0.51677,-1.81384 z m 2.39262,-3.64319 z"
         style="stroke-width:0.26458332"
         id="path184734" />
      <path
         d="m 248.74457,122.61509 v 0.89917 q -0.40307,-0.20671 -0.83716,-0.31006 -0.43408,-0.10335 -0.89917,-0.10335 -0.70796,0 -1.06453,0.21704 -0.3514,0.21704 -0.3514,0.65112 0,0.33073 0.25321,0.52193 0.25322,0.18604 1.01803,0.35657 l 0.32556,0.0724 q 1.01286,0.21704 1.43661,0.61495 0.42891,0.39274 0.42891,1.1007 0,0.80616 -0.64079,1.27641 -0.63562,0.47026 -1.75183,0.47026 -0.46509,0 -0.97151,-0.093 -0.50127,-0.0879 -1.05937,-0.26872 v -0.98185 q 0.5271,0.27388 1.0387,0.41341 0.51159,0.13436 1.01285,0.13436 0.6718,0 1.03353,-0.22738 0.36174,-0.23254 0.36174,-0.65112 0,-0.38757 -0.26355,-0.59428 -0.25839,-0.2067 -1.14205,-0.39791 l -0.33073,-0.0775 q -0.88367,-0.18604 -1.27641,-0.56844 -0.39274,-0.38758 -0.39274,-1.05937 0,-0.81649 0.57878,-1.2609 0.57877,-0.44442 1.64331,-0.44442 0.5271,0 0.99218,0.0775 0.46509,0.0775 0.85783,0.23255 z"
         style="stroke-width:0.26458332"
         id="path184736" />
      <path
         d="m 255.52452,125.10072 v 0.46509 h -4.37183 q 0.062,0.98185 0.58912,1.49862 0.53226,0.51159 1.47794,0.51159 0.54777,0 1.05937,-0.13435 0.51676,-0.13436 1.02319,-0.40308 v 0.89917 q -0.5116,0.21704 -1.04903,0.33073 -0.53744,0.11369 -1.09037,0.11369 -1.38493,0 -2.19625,-0.80616 -0.80615,-0.80615 -0.80615,-2.18074 0,-1.4211 0.76481,-2.25309 0.76998,-0.83716 2.07222,-0.83716 1.16789,0 1.84485,0.75447 0.68213,0.74931 0.68213,2.04122 z m -0.95085,-0.27905 q -0.0103,-0.78031 -0.43925,-1.2454 -0.42374,-0.46509 -1.12654,-0.46509 -0.79582,0 -1.27641,0.44959 -0.47542,0.44958 -0.54777,1.26607 z"
         style="stroke-width:0.26458332"
         id="path184738" />
      <path
         d="m 260.43895,123.33339 q -0.1602,-0.093 -0.3514,-0.13436 -0.18604,-0.0465 -0.41341,-0.0465 -0.80615,0 -1.24024,0.5271 -0.42891,0.52193 -0.42891,1.50379 v 3.04891 h -0.95602 v -5.78777 h 0.95602 v 0.89917 q 0.29972,-0.52709 0.78031,-0.78031 0.48059,-0.25838 1.16789,-0.25838 0.0982,0 0.21704,0.0155 0.11886,0.0103 0.26355,0.0362 z"
         style="stroke-width:0.26458332"
         id="path184740" />
    </g>
    <g
       aria-label="kernel"
       style="font-style:normal;font-weight:normal;font-size:10.58333302px;line-height:1.25;font-family:sans-serif;letter-spacing:0px;word-spacing:0px;fill:#000000;fill-opacity:1;stroke:none;stroke-width:0.26458332"
       id="text166990-0">
      <path
         d="m 238.23875,149.90943 h 0.95602 v 4.74907 l 2.83703,-2.49597 h 1.2144 l -3.06958,2.70784 3.19877,3.07992 h -1.24023 l -2.94039,-2.8267 v 2.8267 h -0.95602 z"
         style="stroke-width:0.26458332"
         id="path184721" />
      <path
         d="m 248.99262,154.8187 v 0.46508 h -4.37183 q 0.062,0.98186 0.58911,1.49862 0.53227,0.5116 1.47795,0.5116 0.54777,0 1.05937,-0.13436 0.51676,-0.13436 1.02319,-0.40308 v 0.89917 q -0.5116,0.21704 -1.04903,0.33073 -0.53744,0.11369 -1.09037,0.11369 -1.38493,0 -2.19625,-0.80615 -0.80615,-0.80616 -0.80615,-2.18075 0,-1.4211 0.76481,-2.25309 0.76998,-0.83716 2.07222,-0.83716 1.16789,0 1.84485,0.75448 0.68213,0.7493 0.68213,2.04122 z m -0.95085,-0.27906 q -0.0103,-0.78031 -0.43925,-1.2454 -0.42374,-0.46509 -1.12654,-0.46509 -0.79582,0 -1.27641,0.44959 -0.47542,0.44958 -0.54777,1.26607 z"
         style="stroke-width:0.26458332"
         id="path184723" />
      <path
         d="m 253.90705,153.05136 q -0.1602,-0.093 -0.3514,-0.13436 -0.18604,-0.0465 -0.41341,-0.0465 -0.80616,0 -1.24024,0.5271 -0.42891,0.52194 -0.42891,1.50379 v 3.04891 h -0.95602 v -5.78776 h 0.95602 v 0.89917 q 0.29972,-0.5271 0.78031,-0.78032 0.48059,-0.25838 1.16789,-0.25838 0.0982,0 0.21704,0.0155 0.11886,0.0103 0.26355,0.0362 z"
         style="stroke-width:0.26458332"
         id="path184725" />
      <path
         d="m 259.53978,154.45696 v 3.49333 h -0.95085 v -3.46232 q 0,-0.82166 -0.32039,-1.2299 -0.3204,-0.40825 -0.96118,-0.40825 -0.76998,0 -1.2144,0.49093 -0.44442,0.49093 -0.44442,1.33842 v 3.27112 h -0.95601 v -5.78776 h 0.95601 v 0.89917 q 0.34107,-0.52194 0.80099,-0.78032 0.46509,-0.25838 1.0697,-0.25838 0.99736,0 1.50895,0.62012 0.5116,0.61495 0.5116,1.81384 z"
         style="stroke-width:0.26458332"
         id="path184727" />
      <path
         d="m 266.39724,154.8187 v 0.46508 h -4.37183 q 0.062,0.98186 0.58912,1.49862 0.53226,0.5116 1.47794,0.5116 0.54777,0 1.05937,-0.13436 0.51676,-0.13436 1.02319,-0.40308 v 0.89917 q -0.51159,0.21704 -1.04903,0.33073 -0.53743,0.11369 -1.09037,0.11369 -1.38493,0 -2.19625,-0.80615 -0.80615,-0.80616 -0.80615,-2.18075 0,-1.4211 0.76481,-2.25309 0.76998,-0.83716 2.07222,-0.83716 1.16789,0 1.84485,0.75448 0.68213,0.7493 0.68213,2.04122 z m -0.95085,-0.27906 q -0.0103,-0.78031 -0.43925,-1.2454 -0.42374,-0.46509 -1.12654,-0.46509 -0.79582,0 -1.27641,0.44959 -0.47542,0.44958 -0.54777,1.26607 z"
         style="stroke-width:0.26458332"
         id="path184729" />
      <path
         d="m 267.95787,149.90943 h 0.95085 v 8.04086 h -0.95085 z"
         style="stroke-width:0.26458332"
         id="path184731" />
    </g>
    <g
       id="g167158"
       transform="translate(27.621953,-4.6797766)">
      <path
         style="opacity:1;fill:none;fill-opacity:1;stroke:#000000;stroke-width:0.56900007;stroke-linecap:round;stroke-miterlimit:4;stroke-dasharray:none;stroke-dashoffset:0;stroke-opacity:1"
         d="M 102.14311,113.58537 A 38.728481,17.508966 0 0 1 63.414631,131.09434 38.728481,17.508966 0 0 1 24.68615,113.58537 38.728481,17.508966 0 0 1 63.414631,96.076406 38.728481,17.508966 0 0 1 102.14311,113.58537 Z"
         id="path167029" />
      <g
         aria-label="network
monitor"
         style="font-style:normal;font-variant:normal;font-weight:normal;font-stretch:normal;font-size:10.58333302px;line-height:1.25;font-family:sans-serif;-inkscape-font-specification:'sans-serif, Normal';font-variant-ligatures:normal;font-variant-caps:normal;font-variant-numeric:normal;font-feature-settings:normal;text-align:start;letter-spacing:0px;word-spacing:0px;writing-mode:lr-tb;text-anchor:start;fill:#000000;fill-opacity:1;stroke:none;stroke-width:0.26458332"
         id="text166990-5">
        <path
           d="m 47.25541,107.42296 v 3.49332 h -0.950846 v -3.46232 q 0,-0.82165 -0.320394,-1.2299 -0.320394,-0.40824 -0.961181,-0.40824 -0.769979,0 -1.214397,0.49093 -0.444417,0.49092 -0.444417,1.33841 v 3.27112 h -0.956014 v -5.78776 h 0.956014 v 0.89917 q 0.341065,-0.52193 0.800985,-0.78031 0.465088,-0.25838 1.069702,-0.25838 0.997355,0 1.508952,0.62011 0.511596,0.61495 0.511596,1.81385 z"
           style=""
           id="path184692" />
        <path
           d="m 54.112873,107.78469 v 0.46509 h -4.371826 q 0.06201,0.98185 0.589111,1.49862 0.532267,0.51159 1.477946,0.51159 0.54777,0 1.059367,-0.13436 0.516764,-0.13436 1.023193,-0.40307 v 0.89917 q -0.511597,0.21704 -1.049031,0.33073 -0.537435,0.11368 -1.090373,0.11368 -1.384928,0 -2.196248,-0.80615 -0.806153,-0.80615 -0.806153,-2.18074 0,-1.42111 0.764811,-2.2531 0.769979,-0.83715 2.072225,-0.83715 1.167888,0 1.844849,0.75447 0.682129,0.74931 0.682129,2.04122 z m -0.950847,-0.27905 q -0.01033,-0.78032 -0.439249,-1.2454 -0.423747,-0.46509 -1.126546,-0.46509 -0.795817,0 -1.276408,0.44958 -0.475423,0.44959 -0.54777,1.26608 z"
           style=""
           id="path184694" />
        <path
           d="m 56.614012,103.48521 v 1.64331 h 1.958536 v 0.73898 h -1.958536 v 3.14192 q 0,0.70797 0.191203,0.90951 0.19637,0.20154 0.790649,0.20154 h 0.976684 v 0.79581 h -0.976684 q -1.100708,0 -1.519287,-0.40824 -0.418579,-0.41341 -0.418579,-1.49862 v -3.14192 h -0.697632 v -0.73898 h 0.697632 v -1.64331 z"
           style=""
           id="path184696" />
        <path
           d="m 59.275348,105.12852 h 0.950846 l 1.188558,4.51652 1.183391,-4.51652 h 1.121378 l 1.188558,4.51652 1.18339,-4.51652 h 0.950847 l -1.51412,5.78776 h -1.121378 l -1.245402,-4.74389 -1.25057,4.74389 h -1.121379 z"
           style=""
           id="path184698" />
        <path
           d="m 70.732014,105.79515 q -0.764812,0 -1.209229,0.59944 -0.444417,0.59428 -0.444417,1.63298 0,1.0387 0.439249,1.63814 0.444418,0.59428 1.214397,0.59428 0.759643,0 1.20406,-0.59944 0.444418,-0.59945 0.444418,-1.63298 0,-1.02836 -0.444418,-1.62781 -0.444417,-0.60461 -1.20406,-0.60461 z m 0,-0.80615 q 1.240234,0 1.948201,0.80615 0.707967,0.80615 0.707967,2.23242 0,1.4211 -0.707967,2.23242 -0.707967,0.80615 -1.948201,0.80615 -1.245402,0 -1.953369,-0.80615 -0.7028,-0.81132 -0.7028,-2.23242 0,-1.42627 0.7028,-2.23242 0.707967,-0.80615 1.953369,-0.80615 z"
           style=""
           id="path184700" />
        <path
           d="m 78.312944,106.01736 q -0.160197,-0.093 -0.3514,-0.13436 -0.186035,-0.0465 -0.413412,-0.0465 -0.806152,0 -1.240234,0.5271 -0.428914,0.52193 -0.428914,1.50378 v 3.04891 H 74.92297 v -5.78776 h 0.956014 v 0.89917 q 0.299723,-0.5271 0.780314,-0.78031 0.480591,-0.25838 1.167887,-0.25838 0.09819,0 0.217041,0.0155 0.118856,0.0103 0.26355,0.0362 z"
           style=""
           id="path184702" />
        <path
           d="m 79.284462,102.87543 h 0.956014 v 4.74906 l 2.837036,-2.49597 h 1.214396 l -3.06958,2.70785 3.198771,3.07991 h -1.240234 l -2.940389,-2.8267 v 2.8267 h -0.956014 z"
           style=""
           id="path184704" />
        <path
           d="m 46.950519,119.46873 q 0.356568,-0.64079 0.852662,-0.94568 0.496093,-0.30489 1.167887,-0.30489 0.904337,0 1.395263,0.63562 0.490927,0.63045 0.490927,1.79834 v 3.49333 h -0.956014 v -3.46232 q 0,-0.83199 -0.294556,-1.23507 -0.294556,-0.40307 -0.89917,-0.40307 -0.738973,0 -1.167887,0.49092 -0.428915,0.49093 -0.428915,1.33842 v 3.27112 h -0.956014 v -3.46232 q 0,-0.83716 -0.294555,-1.23507 -0.294556,-0.40307 -0.909505,-0.40307 -0.728638,0 -1.157553,0.49609 -0.428914,0.49093 -0.428914,1.33325 v 3.27112 h -0.956014 v -5.78776 h 0.956014 v 0.89917 q 0.325562,-0.53227 0.780314,-0.78548 0.454753,-0.25322 1.080038,-0.25322 0.630452,0 1.069702,0.3204 0.444417,0.32039 0.65629,0.93017 z"
           style=""
           id="path184706" />
        <path
           d="m 55.001707,119.02431 q -0.764811,0 -1.209228,0.59945 -0.444418,0.59428 -0.444418,1.63298 0,1.03869 0.43925,1.63814 0.444417,0.59428 1.214396,0.59428 0.759644,0 1.204061,-0.59945 0.444417,-0.59944 0.444417,-1.63297 0,-1.02836 -0.444417,-1.62781 -0.444417,-0.60462 -1.204061,-0.60462 z m 0,-0.80615 q 1.240234,0 1.948201,0.80615 0.707968,0.80616 0.707968,2.23243 0,1.4211 -0.707968,2.23242 -0.707967,0.80615 -1.948201,0.80615 -1.245402,0 -1.953369,-0.80615 -0.7028,-0.81132 -0.7028,-2.23242 0,-1.42627 0.7028,-2.23243 0.707967,-0.80615 1.953369,-0.80615 z"
           style=""
           id="path184708" />
        <path
           d="m 64.039914,120.65212 v 3.49333 h -0.950846 v -3.46232 q 0,-0.82166 -0.320394,-1.2299 -0.320394,-0.40824 -0.961182,-0.40824 -0.769978,0 -1.214396,0.49092 -0.444417,0.49093 -0.444417,1.33842 v 3.27112 h -0.956014 v -5.78776 h 0.956014 v 0.89917 q 0.341064,-0.52193 0.800985,-0.78032 0.465088,-0.25838 1.069702,-0.25838 0.997355,0 1.508952,0.62012 0.511596,0.61495 0.511596,1.81384 z"
           style=""
           id="path184710" />
        <path
           d="m 65.946776,118.35769 h 0.950846 v 5.78776 h -0.950846 z m 0,-2.25309 h 0.950846 v 1.20406 h -0.950846 z"
           style=""
           id="path184712" />
        <path
           d="m 69.822508,116.71438 v 1.64331 h 1.958537 v 0.73897 h -1.958537 v 3.14193 q 0,0.70797 0.191203,0.9095 0.19637,0.20154 0.790649,0.20154 h 0.976685 v 0.79582 H 70.80436 q -1.100708,0 -1.519287,-0.40824 -0.418579,-0.41342 -0.418579,-1.49862 v -3.14193 h -0.697632 v -0.73897 h 0.697632 v -1.64331 z"
           style=""
           id="path184714" />
        <path
           d="m 75.279539,119.02431 q -0.764811,0 -1.209228,0.59945 -0.444418,0.59428 -0.444418,1.63298 0,1.03869 0.43925,1.63814 0.444417,0.59428 1.214396,0.59428 0.759644,0 1.204061,-0.59945 0.444417,-0.59944 0.444417,-1.63297 0,-1.02836 -0.444417,-1.62781 -0.444417,-0.60462 -1.204061,-0.60462 z m 0,-0.80615 q 1.240234,0 1.948201,0.80615 0.707968,0.80616 0.707968,2.23243 0,1.4211 -0.707968,2.23242 -0.707967,0.80615 -1.948201,0.80615 -1.245402,0 -1.953369,-0.80615 -0.7028,-0.81132 -0.7028,-2.23242 0,-1.42627 0.7028,-2.23243 0.707967,-0.80615 1.953369,-0.80615 z"
           style=""
           id="path184716" />
        <path
           d="m 82.860471,119.24652 q -0.160197,-0.093 -0.3514,-0.13436 -0.186035,-0.0465 -0.413411,-0.0465 -0.806153,0 -1.240235,0.5271 -0.428914,0.52193 -0.428914,1.50378 v 3.04891 h -0.956014 v -5.78776 h 0.956014 v 0.89917 q 0.299723,-0.5271 0.780314,-0.78032 0.480591,-0.25838 1.167888,-0.25838 0.09819,0 0.217041,0.0155 0.118855,0.0103 0.263549,0.0362 z"
           style=""
           id="path184718" />
      </g>
    </g>
    <flowRoot
       xml:space="preserve"
       id="flowRoot167100"
       style="font-style:normal;font-weight:normal;font-size:40px;line-height:1.25;font-family:sans-serif;letter-spacing:0px;word-spacing:0px;fill:#000000;fill-opacity:1;stroke:none"
       transform="matrix(0.26458333,0,0,0.26458333,0,87)"><flowRegion
         id="flowRegion167102"><rect
           id="rect167104"
           width="416.66986"
           height="200.96025"
           x="55.310158"
           y="405.60785" /></flowRegion><flowPara
         id="flowPara167106"></flowPara></flowRoot>    <g
       id="g175671"
       transform="translate(-97.151693,-15.577346)">
      <path
         sodipodi:nodetypes="cccccc"
         inkscape:connector-curvature="0"
         id="rect167065-9-3-0"
         d="m 161.10768,199.62772 h 57.24514 v 35.76474 h -57.24514 v -17.88237 z"
         style="opacity:1;fill:none;fill-opacity:1;stroke:#000000;stroke-width:0.50539994;stroke-linecap:round;stroke-miterlimit:4;stroke-dasharray:none;stroke-dashoffset:0;stroke-opacity:1" />
      <g
         aria-label="link-level
driver"
         style="font-style:normal;font-weight:normal;font-size:10.58333302px;line-height:1.25;font-family:sans-serif;letter-spacing:0px;word-spacing:0px;fill:#000000;fill-opacity:1;stroke:none;stroke-width:0.26458332"
         id="text167069-0-8-9">
        <path
           d="m 167.0753,206.80015 h 0.95084 v 8.04085 h -0.95084 z"
           style="stroke-width:0.26458332"
           id="path184658" />
        <path
           d="m 170.01052,209.05324 h 0.95084 v 5.78776 h -0.95084 z m 0,-2.25309 h 0.95084 v 1.20406 h -0.95084 z"
           style="stroke-width:0.26458332"
           id="path184660" />
        <path
           d="m 177.75682,211.34768 v 3.49332 h -0.95085 v -3.46232 q 0,-0.82165 -0.3204,-1.2299 -0.32039,-0.40824 -0.96118,-0.40824 -0.76998,0 -1.21439,0.49093 -0.44442,0.49092 -0.44442,1.33842 v 3.27111 h -0.95601 v -5.78776 h 0.95601 v 0.89917 q 0.34106,-0.52193 0.80098,-0.78031 0.46509,-0.25838 1.06971,-0.25838 0.99735,0 1.50895,0.62011 0.5116,0.61495 0.5116,1.81385 z"
           style="stroke-width:0.26458332"
           id="path184662" />
        <path
           d="m 179.6275,206.80015 h 0.95602 v 4.74906 l 2.83703,-2.49597 h 1.2144 l -3.06958,2.70785 3.19877,3.07991 h -1.24023 l -2.94039,-2.8267 v 2.8267 h -0.95602 z"
           style="stroke-width:0.26458332"
           id="path184664" />
        <path
           d="m 185.32225,211.51821 h 2.78535 v 0.84749 h -2.78535 z"
           style="stroke-width:0.26458332"
           id="path184666" />
        <path
           d="m 189.62689,206.80015 h 0.95085 v 8.04085 h -0.95085 z"
           style="stroke-width:0.26458332"
           id="path184668" />
        <path
           d="m 197.51272,211.70941 v 0.46509 h -4.37183 q 0.062,0.98185 0.58911,1.49862 0.53227,0.51159 1.47795,0.51159 0.54777,0 1.05936,-0.13436 0.51677,-0.13435 1.0232,-0.40307 v 0.89917 q -0.5116,0.21704 -1.04903,0.33073 -0.53744,0.11369 -1.09038,0.11369 -1.38493,0 -2.19625,-0.80616 -0.80615,-0.80615 -0.80615,-2.18074 0,-1.4211 0.76481,-2.2531 0.76998,-0.83715 2.07223,-0.83715 1.16789,0 1.84485,0.75447 0.68213,0.74931 0.68213,2.04122 z m -0.95085,-0.27905 q -0.0103,-0.78032 -0.43925,-1.2454 -0.42375,-0.46509 -1.12655,-0.46509 -0.79581,0 -1.2764,0.44958 -0.47543,0.44959 -0.54777,1.26608 z"
           style="stroke-width:0.26458332"
           id="path184670" />
        <path
           d="m 198.39121,209.05324 h 1.0077 l 1.80867,4.85759 1.80868,-4.85759 h 1.00769 l -2.17041,5.78776 h -1.29191 z"
           style="stroke-width:0.26458332"
           id="path184672" />
        <path
           d="m 210.28713,211.70941 v 0.46509 h -4.37183 q 0.062,0.98185 0.58911,1.49862 0.53227,0.51159 1.47795,0.51159 0.54777,0 1.05937,-0.13436 0.51676,-0.13435 1.02319,-0.40307 v 0.89917 q -0.5116,0.21704 -1.04903,0.33073 -0.53744,0.11369 -1.09037,0.11369 -1.38493,0 -2.19625,-0.80616 -0.80615,-0.80615 -0.80615,-2.18074 0,-1.4211 0.76481,-2.2531 0.76998,-0.83715 2.07222,-0.83715 1.16789,0 1.84485,0.75447 0.68213,0.74931 0.68213,2.04122 z m -0.95085,-0.27905 q -0.0103,-0.78032 -0.43925,-1.2454 -0.42374,-0.46509 -1.12654,-0.46509 -0.79582,0 -1.27641,0.44958 -0.47542,0.44959 -0.54777,1.26608 z"
           style="stroke-width:0.26458332"
           id="path184674" />
        <path
           d="m 211.84776,206.80015 h 0.95084 v 8.04085 h -0.95084 z"
           style="stroke-width:0.26458332"
           id="path184676" />
        <path
           d="m 170.88385,223.16091 v -3.13159 h 0.95085 v 8.04085 h -0.95085 v -0.86816 q -0.29972,0.51676 -0.75964,0.76997 -0.45476,0.24805 -1.09554,0.24805 -1.04904,0 -1.71049,-0.83716 -0.65629,-0.83716 -0.65629,-2.20141 0,-1.36426 0.65629,-2.20142 0.66145,-0.83716 1.71049,-0.83716 0.64078,0 1.09554,0.25322 0.45992,0.24804 0.75964,0.76481 z m -3.24011,2.02055 q 0,1.04903 0.42891,1.64848 0.43408,0.59427 1.18856,0.59427 0.75448,0 1.18856,-0.59427 0.43408,-0.59945 0.43408,-1.64848 0,-1.04903 -0.43408,-1.64331 -0.43408,-0.59945 -1.18856,-0.59945 -0.75448,0 -1.18856,0.59945 -0.42891,0.59428 -0.42891,1.64331 z"
           style="stroke-width:0.26458332"
           id="path184678" />
        <path
           d="m 177.14703,223.17124 q -0.16019,-0.093 -0.3514,-0.13435 -0.18603,-0.0465 -0.41341,-0.0465 -0.80615,0 -1.24023,0.5271 -0.42892,0.52193 -0.42892,1.50378 v 3.04891 h -0.95601 v -5.78776 h 0.95601 v 0.89917 q 0.29973,-0.5271 0.78032,-0.78031 0.48059,-0.25839 1.16788,-0.25839 0.0982,0 0.21705,0.0155 0.11885,0.0103 0.26355,0.0362 z"
           style="stroke-width:0.26458332"
           id="path184680" />
        <path
           d="m 178.15472,222.28241 h 0.95085 v 5.78776 h -0.95085 z m 0,-2.25309 h 0.95085 v 1.20406 h -0.95085 z"
           style="stroke-width:0.26458332"
           id="path184682" />
        <path
           d="m 180.40782,222.28241 h 1.00769 l 1.80867,4.85758 1.80868,-4.85758 h 1.00769 l -2.17041,5.78776 h -1.29191 z"
           style="stroke-width:0.26458332"
           id="path184684" />
        <path
           d="m 192.30373,224.93858 v 0.46509 h -4.37182 q 0.062,0.98185 0.58911,1.49861 0.53226,0.5116 1.47794,0.5116 0.54777,0 1.05937,-0.13436 0.51676,-0.13436 1.02319,-0.40308 v 0.89917 q -0.51159,0.21705 -1.04903,0.33073 -0.53743,0.11369 -1.09037,0.11369 -1.38493,0 -2.19625,-0.80615 -0.80615,-0.80615 -0.80615,-2.18075 0,-1.4211 0.76481,-2.25309 0.76998,-0.83716 2.07222,-0.83716 1.16789,0 1.84485,0.75448 0.68213,0.74931 0.68213,2.04122 z m -0.95085,-0.27905 q -0.0103,-0.78032 -0.43924,-1.24541 -0.42375,-0.46508 -1.12655,-0.46508 -0.79582,0 -1.27641,0.44958 -0.47542,0.44959 -0.54777,1.26607 z"
           style="stroke-width:0.26458332"
           id="path184686" />
        <path
           d="m 197.21816,223.17124 q -0.1602,-0.093 -0.3514,-0.13435 -0.18604,-0.0465 -0.41341,-0.0465 -0.80615,0 -1.24024,0.5271 -0.42891,0.52193 -0.42891,1.50378 v 3.04891 h -0.95601 v -5.78776 h 0.95601 v 0.89917 q 0.29972,-0.5271 0.78031,-0.78031 0.48059,-0.25839 1.16789,-0.25839 0.0982,0 0.21704,0.0155 0.11886,0.0103 0.26355,0.0362 z"
           style="stroke-width:0.26458332"
           id="path184688" />
      </g>
    </g>
    <path
       style="display:inline;fill:none;fill-rule:evenodd;stroke:#000000;stroke-width:0.66500002;stroke-linecap:square;stroke-linejoin:miter;stroke-miterlimit:4;stroke-dasharray:none;stroke-opacity:1;marker-end:url(#Arrow1Lend);paint-order:normal"
       d="m 92.626884,249.00719 0.339407,-27.84214"
       id="path167339"
       sodipodi:nodetypes="cc" />
    <path
       style="fill:none;stroke:#000000;stroke-width:1.06500006;stroke-linecap:butt;stroke-linejoin:miter;stroke-miterlimit:4;stroke-dasharray:6.39000035, 2.13000012;stroke-dashoffset:0;stroke-opacity:1"
       d="M 21.067964,234.21968 H 262.97271"
       id="path166986-1"
       inkscape:connector-curvature="0" />
    <g
       aria-label="network"
       style="font-style:normal;font-weight:normal;font-size:10.58333302px;line-height:1.25;font-family:sans-serif;letter-spacing:0px;word-spacing:0px;fill:#000000;fill-opacity:1;stroke:none;stroke-width:0.26458332"
       id="text166990-0-2">
      <path
         d="m 243.086,248.59401 v 3.49333 h -0.95084 v -3.46232 q 0,-0.82165 -0.3204,-1.2299 -0.32039,-0.40824 -0.96118,-0.40824 -0.76998,0 -1.21439,0.49092 -0.44442,0.49093 -0.44442,1.33842 v 3.27112 h -0.95602 v -5.78776 h 0.95602 v 0.89917 q 0.34106,-0.52193 0.80098,-0.78031 0.46509,-0.25839 1.06971,-0.25839 0.99735,0 1.50895,0.62012 0.51159,0.61495 0.51159,1.81384 z"
         style="stroke-width:0.26458332"
         id="path184643" />
      <path
         d="m 249.94347,248.95575 v 0.46509 h -4.37183 q 0.062,0.98185 0.58911,1.49861 0.53227,0.5116 1.47795,0.5116 0.54777,0 1.05936,-0.13436 0.51677,-0.13436 1.0232,-0.40307 v 0.89917 q -0.5116,0.21704 -1.04903,0.33072 -0.53744,0.11369 -1.09038,0.11369 -1.38493,0 -2.19625,-0.80615 -0.80615,-0.80615 -0.80615,-2.18074 0,-1.42111 0.76481,-2.2531 0.76998,-0.83716 2.07223,-0.83716 1.16789,0 1.84485,0.75448 0.68213,0.74931 0.68213,2.04122 z m -0.95085,-0.27905 q -0.0103,-0.78032 -0.43925,-1.24541 -0.42375,-0.46508 -1.12655,-0.46508 -0.79581,0 -1.2764,0.44958 -0.47543,0.44959 -0.54777,1.26607 z"
         style="stroke-width:0.26458332"
         id="path184645" />
      <path
         d="m 252.4446,244.65627 v 1.64331 h 1.95854 v 0.73897 h -1.95854 v 3.14193 q 0,0.70797 0.19121,0.90951 0.19637,0.20153 0.79065,0.20153 h 0.97668 v 0.79582 h -0.97668 q -1.10071,0 -1.51929,-0.40824 -0.41858,-0.41341 -0.41858,-1.49862 v -3.14193 h -0.69763 v -0.73897 h 0.69763 v -1.64331 z"
         style="stroke-width:0.26458332"
         id="path184647" />
      <path
         d="m 255.10594,246.29958 h 0.95085 l 1.18856,4.51652 1.18339,-4.51652 h 1.12137 l 1.18856,4.51652 1.18339,-4.51652 h 0.95085 l -1.51412,5.78776 h -1.12138 l -1.2454,-4.7439 -1.25057,4.7439 h -1.12138 z"
         style="stroke-width:0.26458332"
         id="path184649" />
      <path
         d="m 266.56261,246.96621 q -0.76481,0 -1.20923,0.59944 -0.44442,0.59428 -0.44442,1.63298 0,1.0387 0.43925,1.63814 0.44442,0.59428 1.2144,0.59428 0.75964,0 1.20406,-0.59945 0.44441,-0.59944 0.44441,-1.63297 0,-1.02836 -0.44441,-1.62781 -0.44442,-0.60461 -1.20406,-0.60461 z m 0,-0.80616 q 1.24023,0 1.9482,0.80616 0.70797,0.80615 0.70797,2.23242 0,1.4211 -0.70797,2.23242 -0.70797,0.80615 -1.9482,0.80615 -1.24541,0 -1.95337,-0.80615 -0.7028,-0.81132 -0.7028,-2.23242 0,-1.42627 0.7028,-2.23242 0.70796,-0.80616 1.95337,-0.80616 z"
         style="stroke-width:0.26458332"
         id="path184651" />
      <path
         d="m 274.14354,247.18842 q -0.1602,-0.093 -0.3514,-0.13436 -0.18604,-0.0465 -0.41341,-0.0465 -0.80616,0 -1.24024,0.5271 -0.42891,0.52193 -0.42891,1.50378 v 3.04891 h -0.95602 v -5.78776 h 0.95602 v 0.89917 q 0.29972,-0.5271 0.78031,-0.78031 0.48059,-0.25839 1.16789,-0.25839 0.0982,0 0.21704,0.0155 0.11886,0.0103 0.26355,0.0362 z"
         style="stroke-width:0.26458332"
         id="path184653" />
      <path
         d="m 275.11506,244.04649 h 0.95601 v 4.74906 l 2.83704,-2.49597 h 1.21439 l -3.06958,2.70785 3.19877,3.07991 h -1.24023 l -2.94039,-2.8267 v 2.8267 h -0.95601 z"
         style="stroke-width:0.26458332"
         id="path184655" />
    </g>
    <flowRoot
       xml:space="preserve"
       id="flowRoot175637"
       style="font-style:normal;font-weight:normal;font-size:40px;line-height:1.25;font-family:sans-serif;letter-spacing:0px;word-spacing:0px;fill:#000000;fill-opacity:1;stroke:none"
       transform="matrix(0.26458333,0,0,0.26458333,8.5625517,94.816297)"><flowRegion
         id="flowRegion175639"><rect
           id="rect175641"
           width="1256.25"
           height="200"
           x="-32.8125"
           y="494.29651" /></flowRegion><flowPara
         id="flowPara175643"></flowPara></flowRoot>    <g
       id="g180008"
       transform="translate(8.6816407,-8.0615235)">
      <path
         sodipodi:nodetypes="cccccc"
         inkscape:connector-curvature="0"
         id="rect167065-9-3-0-9"
         d="m 153.57279,171.33633 h 57.24514 v 35.76474 H 153.57279 V 189.2187 Z"
         style="opacity:1;fill:none;fill-opacity:1;stroke:#000000;stroke-width:0.50539994;stroke-linecap:round;stroke-miterlimit:4;stroke-dasharray:none;stroke-dashoffset:0;stroke-opacity:1" />
      <g
         aria-label="protocol
stack"
         style="font-style:normal;font-weight:normal;font-size:10.58333302px;line-height:1.25;font-family:sans-serif;letter-spacing:0px;word-spacing:0px;fill:#000000;fill-opacity:1;stroke:none;stroke-width:0.26458332"
         id="text167069-0-8-9-2">
        <path
           d="m 160.46026,185.68146 v 3.06958 h -0.95602 v -7.98918 h 0.95602 v 0.8785 q 0.29972,-0.51676 0.75447,-0.76481 0.45992,-0.25322 1.09554,-0.25322 1.0542,0 1.71049,0.83716 0.66146,0.83716 0.66146,2.20142 0,1.36426 -0.66146,2.20142 -0.65629,0.83715 -1.71049,0.83715 -0.63562,0 -1.09554,-0.24804 -0.45475,-0.25322 -0.75447,-0.76998 z m 3.23494,-2.02055 q 0,-1.04903 -0.43408,-1.64331 -0.42892,-0.59945 -1.18339,-0.59945 -0.75448,0 -1.18856,0.59945 -0.42891,0.59428 -0.42891,1.64331 0,1.04903 0.42891,1.64848 0.43408,0.59428 1.18856,0.59428 0.75447,0 1.18339,-0.59428 0.43408,-0.59945 0.43408,-1.64848 z"
           style="stroke-width:0.26458332"
           id="path184616" />
        <path
           d="m 169.61215,181.6507 q -0.1602,-0.093 -0.3514,-0.13436 -0.18603,-0.0465 -0.41341,-0.0465 -0.80615,0 -1.24023,0.5271 -0.42892,0.52193 -0.42892,1.50378 v 3.04891 h -0.95601 v -5.78776 h 0.95601 v 0.89917 q 0.29973,-0.5271 0.78032,-0.78031 0.48059,-0.25839 1.16788,-0.25839 0.0982,0 0.21704,0.0155 0.11886,0.0103 0.26355,0.0362 z"
           style="stroke-width:0.26458332"
           id="path184618" />
        <path
           d="m 172.63522,181.42849 q -0.76481,0 -1.20923,0.59944 -0.44441,0.59428 -0.44441,1.63298 0,1.0387 0.43925,1.63814 0.44441,0.59428 1.21439,0.59428 0.75965,0 1.20406,-0.59945 0.44442,-0.59944 0.44442,-1.63297 0,-1.02836 -0.44442,-1.62781 -0.44441,-0.60461 -1.20406,-0.60461 z m 0,-0.80616 q 1.24024,0 1.9482,0.80616 0.70797,0.80615 0.70797,2.23242 0,1.4211 -0.70797,2.23242 -0.70796,0.80615 -1.9482,0.80615 -1.2454,0 -1.95337,-0.80615 -0.7028,-0.81132 -0.7028,-2.23242 0,-1.42627 0.7028,-2.23242 0.70797,-0.80616 1.95337,-0.80616 z"
           style="stroke-width:0.26458332"
           id="path184620" />
        <path
           d="m 177.80287,179.11855 v 1.64331 h 1.95853 v 0.73897 h -1.95853 v 3.14193 q 0,0.70797 0.1912,0.90951 0.19637,0.20153 0.79065,0.20153 h 0.97668 v 0.79582 h -0.97668 q -1.10071,0 -1.51929,-0.40824 -0.41858,-0.41341 -0.41858,-1.49862 v -3.14193 h -0.69763 v -0.73897 h 0.69763 v -1.64331 z"
           style="stroke-width:0.26458332"
           id="path184622" />
        <path
           d="m 183.2599,181.42849 q -0.76481,0 -1.20923,0.59944 -0.44442,0.59428 -0.44442,1.63298 0,1.0387 0.43925,1.63814 0.44442,0.59428 1.2144,0.59428 0.75964,0 1.20406,-0.59945 0.44442,-0.59944 0.44442,-1.63297 0,-1.02836 -0.44442,-1.62781 -0.44442,-0.60461 -1.20406,-0.60461 z m 0,-0.80616 q 1.24023,0 1.9482,0.80616 0.70797,0.80615 0.70797,2.23242 0,1.4211 -0.70797,2.23242 -0.70797,0.80615 -1.9482,0.80615 -1.2454,0 -1.95337,-0.80615 -0.7028,-0.81132 -0.7028,-2.23242 0,-1.42627 0.7028,-2.23242 0.70797,-0.80616 1.95337,-0.80616 z"
           style="stroke-width:0.26458332"
           id="path184624" />
        <path
           d="m 191.65215,180.98407 v 0.88883 q -0.40308,-0.2222 -0.81132,-0.33072 -0.40308,-0.11369 -0.81649,-0.11369 -0.92501,0 -1.4366,0.58911 -0.5116,0.58394 -0.5116,1.64331 0,1.05937 0.5116,1.64848 0.51159,0.58394 1.4366,0.58394 0.41341,0 0.81649,-0.10852 0.40824,-0.11369 0.81132,-0.3359 v 0.8785 q -0.39791,0.18604 -0.82682,0.27906 -0.42375,0.093 -0.90434,0.093 -1.30742,0 -2.07739,-0.82165 -0.76998,-0.82166 -0.76998,-2.21692 0,-1.41594 0.77514,-2.22726 0.78032,-0.81132 2.13424,-0.81132 0.43925,0 0.85783,0.093 0.41858,0.0879 0.81132,0.26872 z"
           style="stroke-width:0.26458332"
           id="path184626" />
        <path
           d="m 195.55889,181.42849 q -0.76481,0 -1.20923,0.59944 -0.44442,0.59428 -0.44442,1.63298 0,1.0387 0.43925,1.63814 0.44442,0.59428 1.2144,0.59428 0.75964,0 1.20406,-0.59945 0.44442,-0.59944 0.44442,-1.63297 0,-1.02836 -0.44442,-1.62781 -0.44442,-0.60461 -1.20406,-0.60461 z m 0,-0.80616 q 1.24023,0 1.9482,0.80616 0.70797,0.80615 0.70797,2.23242 0,1.4211 -0.70797,2.23242 -0.70797,0.80615 -1.9482,0.80615 -1.2454,0 -1.95337,-0.80615 -0.7028,-0.81132 -0.7028,-2.23242 0,-1.42627 0.7028,-2.23242 0.70797,-0.80616 1.95337,-0.80616 z"
           style="stroke-width:0.26458332"
           id="path184628" />
        <path
           d="m 199.78602,178.50877 h 0.95085 v 8.04085 h -0.95085 z"
           style="stroke-width:0.26458332"
           id="path184630" />
        <path
           d="m 163.23011,194.16156 v 0.89917 q -0.40307,-0.20671 -0.83716,-0.31006 -0.43408,-0.10335 -0.89917,-0.10335 -0.70796,0 -1.06453,0.21704 -0.3514,0.21704 -0.3514,0.65112 0,0.33073 0.25321,0.52193 0.25322,0.18604 1.01803,0.35657 l 0.32556,0.0724 q 1.01286,0.21704 1.43661,0.61495 0.42891,0.39274 0.42891,1.10071 0,0.80615 -0.64079,1.2764 -0.63562,0.47026 -1.75183,0.47026 -0.46509,0 -0.97151,-0.093 -0.50127,-0.0879 -1.05937,-0.26872 v -0.98185 q 0.5271,0.27389 1.03869,0.41341 0.5116,0.13436 1.01286,0.13436 0.6718,0 1.03353,-0.22737 0.36174,-0.23255 0.36174,-0.65113 0,-0.38757 -0.26355,-0.59428 -0.25839,-0.2067 -1.14205,-0.3979 l -0.33073,-0.0775 q -0.88367,-0.18603 -1.27641,-0.56844 -0.39274,-0.38757 -0.39274,-1.05937 0,-0.81648 0.57878,-1.2609 0.57877,-0.44442 1.64331,-0.44442 0.5271,0 0.99218,0.0775 0.46509,0.0775 0.85783,0.23254 z"
           style="stroke-width:0.26458332"
           id="path184632" />
        <path
           d="m 165.99997,192.34772 v 1.64331 h 1.95854 V 194.73 h -1.95854 v 3.14193 q 0,0.70796 0.1912,0.9095 0.19637,0.20154 0.79065,0.20154 h 0.97669 v 0.79582 h -0.97669 q -1.10071,0 -1.51929,-0.40825 -0.41857,-0.41341 -0.41857,-1.49861 V 194.73 h -0.69764 v -0.73897 h 0.69764 v -1.64331 z"
           style="stroke-width:0.26458332"
           id="path184634" />
        <path
           d="m 171.84457,196.8694 q -1.15238,0 -1.5968,0.26355 -0.44442,0.26355 -0.44442,0.89917 0,0.50643 0.33073,0.80616 0.3359,0.29455 0.90951,0.29455 0.79065,0 1.26607,-0.5581 0.48059,-0.56328 0.48059,-1.49345 v -0.21188 z m 1.89653,-0.39274 v 3.30213 h -0.95085 v -0.8785 q -0.32556,0.5271 -0.81132,0.78031 -0.48576,0.24805 -1.18856,0.24805 -0.88883,0 -1.41593,-0.49609 -0.52193,-0.50127 -0.52193,-1.33842 0,-0.97669 0.65112,-1.47278 0.65629,-0.4961 1.95337,-0.4961 h 1.33325 v -0.093 q 0,-0.65629 -0.43408,-1.01286 -0.42891,-0.36174 -1.20923,-0.36174 -0.49609,0 -0.96635,0.11886 -0.47025,0.11886 -0.90433,0.35657 v -0.8785 q 0.52193,-0.20154 1.01285,-0.29973 0.49093,-0.10335 0.95602,-0.10335 1.25573,0 1.87585,0.65112 0.62012,0.65113 0.62012,1.97404 z"
           style="stroke-width:0.26458332"
           id="path184636" />
        <path
           d="m 179.86992,194.21324 v 0.88883 q -0.40307,-0.22221 -0.81132,-0.33073 -0.40307,-0.11369 -0.81649,-0.11369 -0.925,0 -1.4366,0.58911 -0.5116,0.58395 -0.5116,1.64332 0,1.05936 0.5116,1.64847 0.5116,0.58395 1.4366,0.58395 0.41342,0 0.81649,-0.10852 0.40825,-0.11369 0.81132,-0.3359 v 0.8785 q -0.39791,0.18603 -0.82682,0.27905 -0.42375,0.093 -0.90434,0.093 -1.30741,0 -2.07739,-0.82166 -0.76998,-0.82165 -0.76998,-2.21691 0,-1.41594 0.77515,-2.22726 0.78031,-0.81132 2.13423,-0.81132 0.43925,0 0.85783,0.093 0.41858,0.0878 0.81132,0.26872 z"
           style="stroke-width:0.26458332"
           id="path184638" />
        <path
           d="m 181.49773,191.73794 h 0.95601 v 4.74906 l 2.83704,-2.49597 h 1.2144 l -3.06958,2.70784 3.19877,3.07992 h -1.24024 l -2.94039,-2.8267 v 2.8267 h -0.95601 z"
           style="stroke-width:0.26458332"
           id="path184640" />
      </g>
    </g>
    <path
       style="display:inline;fill:none;fill-rule:evenodd;stroke:#000000;stroke-width:0.66500002;stroke-linecap:round;stroke-linejoin:miter;stroke-miterlimit:4;stroke-dasharray:none;stroke-opacity:1;marker-end:url(#Arrow1Lend-8);paint-order:normal"
       d="M 91.34384,183.68029 91.105942,127.39928"
       id="path167339-8"
       sodipodi:nodetypes="cc" />
    <path
       sodipodi:nodetypes="cc"
       id="path182153"
       d="m 121.35898,205.83592 39.88075,-26.18536"
       style="display:inline;fill:none;fill-rule:evenodd;stroke:#000000;stroke-width:0.66500002;stroke-linecap:round;stroke-linejoin:miter;stroke-miterlimit:4;stroke-dasharray:none;stroke-opacity:1;marker-end:url(#marker182157);paint-order:normal" />
    <g
       aria-label="filtering"
       style="font-style:normal;font-variant:normal;font-weight:normal;font-stretch:normal;font-size:8.46666622px;line-height:1.25;font-family:sans-serif;-inkscape-font-specification:'sans-serif, Normal';font-variant-ligatures:normal;font-variant-caps:normal;font-variant-numeric:normal;font-feature-settings:normal;text-align:start;letter-spacing:0px;word-spacing:0px;writing-mode:tb-rl;text-anchor:start;fill:#000000;fill-opacity:1;stroke:none;stroke-width:0.26458332"
       id="text184597">
      <path
         d="m 99.46346,151.17657 h -4.630209 v -0.76481 h 4.03903 v -2.08773 h -4.03903 v -0.76481 h 4.03903 v -0.7276 h 0.591179 v 0.7276 h 0.32246 q 0.75654,0 1.11621,0.35554 0.3638,0.35966 0.3638,1.09967 v 0.76481 h -0.63252 v -0.7276 q 0,-0.40928 -0.16536,-0.57051 -0.16537,-0.1571 -0.595313,-0.1571 H 99.46346 Z m 1.79421,-0.76481 v 0.76481 h -0.96325 v -0.76481 z"
         style="font-style:normal;font-variant:normal;font-weight:normal;font-stretch:normal;font-size:8.46666622px;font-family:sans-serif;-inkscape-font-specification:'sans-serif, Normal';font-variant-ligatures:normal;font-variant-caps:normal;font-variant-numeric:normal;font-feature-settings:normal;text-align:start;writing-mode:tb-rl;text-anchor:start;stroke-width:0.26458332"
         id="path184599" />
      <path
         d="m 101.26593,152.76821 v 0.76067 h -6.432679 v -0.76067 z"
         style="font-style:normal;font-variant:normal;font-weight:normal;font-stretch:normal;font-size:8.46666622px;font-family:sans-serif;-inkscape-font-specification:'sans-serif, Normal';font-variant-ligatures:normal;font-variant-caps:normal;font-variant-numeric:normal;font-feature-settings:normal;text-align:start;writing-mode:tb-rl;text-anchor:start;stroke-width:0.26458332"
         id="path184601" />
      <path
         d="m 100.77811,155.87293 h -1.31465 v 1.56682 h -0.591179 v -1.56682 H 96.35874 q -0.566374,0 -0.727604,0.15296 -0.161231,0.15709 -0.161231,0.63252 v 0.78134 h -0.636654 v -0.78134 q 0,-0.88057 0.326596,-1.21543 0.330729,-0.33487 1.198893,-0.33487 h 2.513541 v -0.5581 h 0.591179 v 0.5581 h 1.31465 z"
         style="font-style:normal;font-variant:normal;font-weight:normal;font-stretch:normal;font-size:8.46666622px;font-family:sans-serif;-inkscape-font-specification:'sans-serif, Normal';font-variant-ligatures:normal;font-variant-caps:normal;font-variant-numeric:normal;font-feature-settings:normal;text-align:start;writing-mode:tb-rl;text-anchor:start;stroke-width:0.26458332"
         id="path184603" />
      <path
         d="m 97.338525,162.40069 h -0.372071 v -3.49746 q -0.785481,0.0496 -1.198893,0.47129 -0.409277,0.42581 -0.409277,1.18236 0,0.43821 0.107487,0.84749 0.107487,0.41341 0.322461,0.81856 h -0.719336 q -0.173633,-0.40928 -0.264583,-0.83923 -0.09095,-0.42995 -0.09095,-0.8723 0,-1.10794 0.644922,-1.757 0.644922,-0.64492 1.744596,-0.64492 1.136882,0 1.802474,0.61185 0.669727,0.61598 0.669727,1.65778 0,0.93431 -0.603581,1.47588 -0.599447,0.5457 -1.632975,0.5457 z m 0.223242,-0.76068 q 0.624251,-0.008 0.996322,-0.35139 0.37207,-0.339 0.37207,-0.90124 0,-0.63666 -0.359668,-1.02113 -0.359668,-0.38034 -1.012858,-0.43821 z"
         style="font-style:normal;font-variant:normal;font-weight:normal;font-stretch:normal;font-size:8.46666622px;font-family:sans-serif;-inkscape-font-specification:'sans-serif, Normal';font-variant-ligatures:normal;font-variant-caps:normal;font-variant-numeric:normal;font-feature-settings:normal;text-align:start;writing-mode:tb-rl;text-anchor:start;stroke-width:0.26458332"
         id="path184605" />
      <path
         d="m 98.752392,166.33224 q 0.07441,-0.12816 0.107487,-0.28112 0.03721,-0.14883 0.03721,-0.33073 0,-0.64493 -0.42168,-0.99219 -0.417545,-0.34313 -1.203027,-0.34313 h -2.439128 v -0.76481 h 4.630209 v 0.76481 h -0.719336 q 0.421679,0.23978 0.624251,0.62425 0.206706,0.38447 0.206706,0.93431 0,0.0785 -0.0124,0.17363 -0.0083,0.0951 -0.02894,0.21084 z"
         style="font-style:normal;font-variant:normal;font-weight:normal;font-stretch:normal;font-size:8.46666622px;font-family:sans-serif;-inkscape-font-specification:'sans-serif, Normal';font-variant-ligatures:normal;font-variant-caps:normal;font-variant-numeric:normal;font-feature-settings:normal;text-align:start;writing-mode:tb-rl;text-anchor:start;stroke-width:0.26458332"
         id="path184607" />
      <path
         d="m 99.46346,167.13012 v 0.76067 h -4.630209 v -0.76067 z m 1.80247,0 v 0.76067 h -0.96325 v -0.76067 z"
         style="font-style:normal;font-variant:normal;font-weight:normal;font-stretch:normal;font-size:8.46666622px;font-family:sans-serif;-inkscape-font-specification:'sans-serif, Normal';font-variant-ligatures:normal;font-variant-caps:normal;font-variant-numeric:normal;font-feature-settings:normal;text-align:start;writing-mode:tb-rl;text-anchor:start;stroke-width:0.26458332"
         id="path184609" />
      <path
         d="m 97.627913,173.33129 h -2.794662 v -0.76068 h 2.769857 q 0.657324,0 0.983919,-0.25631 0.326595,-0.25632 0.326595,-0.76895 0,-0.61598 -0.392741,-0.97151 -0.39274,-0.35554 -1.070735,-0.35554 h -2.616895 v -0.76481 h 4.630209 v 0.76481 h -0.719336 q 0.417545,0.27285 0.624251,0.64079 0.206706,0.37207 0.206706,0.85576 0,0.79789 -0.496094,1.20716 -0.49196,0.40928 -1.451074,0.40928 z"
         style="font-style:normal;font-variant:normal;font-weight:normal;font-stretch:normal;font-size:8.46666622px;font-family:sans-serif;-inkscape-font-specification:'sans-serif, Normal';font-variant-ligatures:normal;font-variant-caps:normal;font-variant-numeric:normal;font-feature-settings:normal;text-align:start;writing-mode:tb-rl;text-anchor:start;stroke-width:0.26458332"
         id="path184611" />
      <path
         d="m 97.202099,177.89535 q 0.826823,0 1.281575,-0.34313 0.454753,-0.339 0.454753,-0.95498 0,-0.61185 -0.454753,-0.95498 -0.454752,-0.339 -1.281575,-0.339 -0.822689,0 -1.277441,0.339 -0.454753,0.34313 -0.454753,0.95498 0,0.61598 0.454753,0.95498 0.454752,0.34313 1.277441,0.34313 z m -1.794206,0.76068 q -1.182356,0 -1.756998,-0.52503 -0.578776,-0.52504 -0.578776,-1.60817 0,-0.40101 0.06201,-0.75655 0.05788,-0.35553 0.181902,-0.69039 h 0.740006 q -0.181901,0.33486 -0.268717,0.66145 -0.08682,0.3266 -0.08682,0.6656 0,0.74827 0.392741,1.12034 0.388607,0.37207 1.178223,0.37207 h 0.376204 q -0.409277,-0.23564 -0.611849,-0.60358 -0.202572,-0.36794 -0.202572,-0.88057 0,-0.85162 0.649056,-1.37252 0.649056,-0.5209 1.719792,-0.5209 1.07487,0 1.723926,0.5209 0.649056,0.5209 0.649056,1.37252 0,0.51263 -0.202572,0.88057 -0.202572,0.36794 -0.611849,0.60358 h 0.7028 v 0.76068 z"
         style="font-style:normal;font-variant:normal;font-weight:normal;font-stretch:normal;font-size:8.46666622px;font-family:sans-serif;-inkscape-font-specification:'sans-serif, Normal';font-variant-ligatures:normal;font-variant-caps:normal;font-variant-numeric:normal;font-feature-settings:normal;text-align:start;writing-mode:tb-rl;text-anchor:start;stroke-width:0.26458332"
         id="path184613" />
    </g>
  </g>
</svg>
